# AST/ASF file generated using VICON BodyLanguage
# -----------------------------------------------
:version 1.10
:name VICON
:units
  mass 1.0
  length 0.45
  angle deg
:documentation
   .ast/.asf automatically generated from VICON data using
   VICON BodyBuilder and BodyLanguage model FoxedUp or BRILLIANT.MOD
:root
   order TX TY TZ RX RY RZ
   axis XYZ
   position 0 0 0  
   orientation 0 0 0 
:bonedata
  begin
     id 1 
     name lhipjoint
     direction 0.584852 -0.759097 0.285867 
     length 2.43633 
     axis 0 0 0  XYZ
  end
  begin
     id 2 
     name lfemur
     direction 0.34202 -0.939693 0  
     length 7.14704  
     axis 0 0 20  XYZ
    dof rx ry rz
    limits (-160.0 20.0)
           (-70.0 70.0)
           (-60.0 70.0)
  end
  begin
     id 3 
     name ltibia
     direction 0.342022 -0.939692 0   
     length 7.68483   
     axis 0 0 20   XYZ
    dof rx
    limits (-10.0 170.0)
  end
  begin
     id 4 
     name lfoot
     direction 0.0999605 -0.274639 0.956337   
     length 2.40452   
     axis -90 7.62852e-016 20   XYZ
    dof rx rz
    limits (-45.0 90.0)
           (-70.0 20.0)
  end
  begin
     id 5 
     name ltoes
     direction 1.53468e-011 -4.21881e-011 1   
     length 1.19837   
     axis -90 7.62852e-016 20   XYZ
    dof rx
    limits (-90.0 20.0)
  end
  begin
     id 6 
     name rhipjoint
     direction -0.569886 -0.769002 0.289597   
     length 2.40495  
     axis 0 0 0  XYZ 
  end
  begin
     id 7 
     name rfemur
     direction -0.34202 -0.939693 0   
     length 7.45086   
     axis 0 0 -20   XYZ
    dof rx ry rz
    limits (-160.0 20.0)
           (-70.0 70.0)
           (-70.0 60.0)
  end
  begin
     id 8 
     name rtibia
     direction -0.34202 -0.939693 0   
     length 7.76831   
     axis 0 0 -20   XYZ
    dof rx
    limits (-10.0 170.0)
 end
 begin
     id 9 
     name rfoot
     direction -0.0798572 -0.219406 0.97236   
     length 2.35911  
     axis -90 -7.62852e-016 -20   XYZ
    dof rx rz
    limits (-45.0 90.0)
           (-20.0 70.0)
  end
  begin
     id 10 
     name rtoes
     direction -1.53469e-011 -4.21728e-011 1   
     length 1.18261   
     axis -90 -7.62852e-016 -20   XYZ
    dof rx
    limits (-90.0 20.0)
  end
  begin
     id 11 
     name lowerback
     direction 0.0242088 0.999437 0.0232389   
     length 2.1561   
     axis 0 0 0   XYZ
    dof rx ry rz
    limits (-20.0 45.0)
           (-30.0 30.0)
           (-30.0 30.0)
  end
  begin
     id 12 
     name upperback
     direction -0.0356893 0.999013 -0.0264323   
     length 2.14431   
     axis 0 0 0   XYZ
    dof rx ry rz
    limits (-20.0 45.0)
           (-30.0 30.0)
           (-30.0 30.0)
  end
  begin
     id 13 
     name thorax
     direction -0.0472163 0.998194 -0.0371284   
     length 2.16169   
     axis 0 0 0   XYZ
    dof rx ry rz
    limits (-20.0 45.0)
           (-30.0 30.0)
           (-30.0 30.0)
  end
  begin
     id 14 
     name lowerneck
     direction 0.00863244 0.999921 0.00911972   
     length 1.58651   
     axis 0 0 0   XYZ
    dof rx ry rz
    limits (-20.0 45.0)
           (-30.0 30.0)
           (-30.0 30.0)
  end
  begin
     id 15 
     name upperneck
     direction 0.149523 0.979068 -0.138086   
     length 1.57486   
     axis 0 0 0   XYZ
    dof rx ry rz
    limits (-20.0 45.0)
           (-30.0 30.0)
           (-30.0 30.0)
  end
  begin
     id 16
     name head
     direction 0.0445219 0.997708 -0.0509576  
     length 1.6019  
     axis 0 0 0   XYZ
    dof rx ry rz
    limits (-20.0 45.0)
           (-30.0 30.0)
           (-30.0 30.0)
  end
  begin
     id 17 
     name lclavicle
     direction 0.911271 0.381667 -0.154644  
     length 3.80848  
     axis 0 0 0   XYZ
    dof ry rz
    limits (-20.0 10.0)
           (0.0 20.0)
  end
  begin
     id 18 
     name lhumerus
     direction 1 -4.49003e-011 2.1308e-027   
     length 5.19069   
     axis 180 -30 -90   XYZ
    dof rx ry rz
    limits (-60.0 90.0)
           (-90.0 90.0)
           (-90.0 90.0)
  end
  begin
     id 19
     name lradius
     direction 1 -4.48914e-011 4.01554e-027   
     length 3.30016   
     axis 180 -30 -90   XYZ
    dof rx
    limits (-10.0 170.0)
  end
  begin
     id 20
     name lwrist
     direction 1 -4.49003e-011 1.1934e-026   
     length 1.65008   
     axis -8.46377e-015 90 90   XYZ
    dof ry
    limits (-180.0 0.0)
 end
  begin
     id 21 
     name lhand
     direction 1 -4.49034e-011 2.38659e-026   
     length 0.707698   
     axis -1.52313e-014 90 90   XYZ
    dof rx rz
    limits (-90.0 90.0)
           (-45.0 45.0)
  end
  begin
     id 22 
     name lfingers
     direction 1 -4.48691e-011 4.77775e-026   
     length 0.570564   
     axis -3.04623e-014 90 90   XYZ
    dof rx
    limits (0.0 90.0)
  end
  begin
     id 23
     name lthumb
     direction 0.707107 -6.34832e-011 0.707107   
     length 0.819219   
     axis -90 45 -1.62303e-014   XYZ
    dof rx rz
    limits (-45.0 45.0)
           (-45.0 45.0)
  end
  begin
     id 24 
     name rclavicle
     direction -0.815579 0.573708 -0.0754329   
     length 3.54371  
     axis 0 0 0   XYZ 
    dof ry rz
    limits (-10.0 20.0)
           (-20.0 0.0)
  end
  begin
     id 25 
     name rhumerus
     direction -1 -4.48956e-011 3.05351e-028  
     length 5.23924   
     axis 180 30 90   XYZ
    dof rx ry rz
    limits (-90.0 60.0)
           (-90.0 90.0)
           (-90.0 90.0)
  end
  begin
     id 26 
     name rradius
     direction -1 -4.49013e-011 3.53849e-027   
     length 3.32953   
     axis 180 30 90   XYZ
    dof rx
    limits (-10.0 170.0)
  end
  begin
     id 27 
     name rwrist
     direction -1 -4.48901e-011 1.19374e-026   
     length 1.66477   
     axis -8.46377e-015 -90 -90   XYZ
    dof ry
    limits (-180.0 0.0)
  end
  begin
     id 28
     name rhand
     direction -1 -4.48877e-011 2.38764e-026   
     length 0.607414   
     axis -1.52313e-014 -90 -90   XYZ
    dof rx rz
    limits (-90.0 90.0)
           (-45.0 45.0)
  end
  begin
     id 29
     name rfingers
     direction -1 -4.48882e-011 4.77521e-026   
     length 0.489712   
     axis -3.04623e-014 -90 -90   XYZ
    dof rx
    limits (0.0 90.0)
  end
  begin
     id 30
     name rthumb
     direction -0.707107 -6.34974e-011 0.707107   
     length 0.703132   
     axis -90 -45 1.62303e-014   XYZ
    dof rx rz
    limits (-45.0 45.0)
           (-45.0 45.0)
  end
:hierarchy
  begin
    root lhipjoint rhipjoint lowerback
    lhipjoint lfemur
    lfemur ltibia
    ltibia lfoot
    lfoot ltoes
    rhipjoint rfemur
    rfemur rtibia
    rtibia rfoot
    rfoot rtoes
    lowerback upperback
    upperback thorax
    thorax lowerneck lclavicle rclavicle
    lowerneck upperneck
    upperneck head
    lclavicle lhumerus
    lhumerus lradius
    lradius lwrist
    lwrist lhand lthumb
    lhand lfingers
    rclavicle rhumerus
    rhumerus rradius
    rradius rwrist
    rwrist rhand rthumb
    rhand rfingers
  end

#!OML:ASF E:\VariousWalksJay\Project 1\Capture day 1\Session 1\Actor2.ASF
:FULLY-SPECIFIED
:DEGREES
388
root 23.2952 14.7275 -14.8867 17.0206 -50.6731 -6.99434
lowerback 41.2392 -4.08698 7.77192
upperback 18.9364 -3.9472 -3.46415
thorax 0.874894 -1.74004 -6.32475
lowerneck 5.20465 2.24167 2.41585
upperneck -19.4697 2.80953 -2.62263
head -6.7 1.34248 -1.44243
rclavicle 7.95139e-015 -7.35503e-014
rhumerus -7.26785 33.3129 -77.1673
rradius 107.723
rwrist 13.8638
rhand -31.7835 -11.1986
rfingers 7.12502
rthumb -5.03969 -41.1187
lclavicle 7.95139e-015 -7.35503e-014
lhumerus 57.2115 -8.65457 43.3964
lradius 72.5336
lwrist 59.1958
lhand -36.9844 15.769
lfingers 7.12502
lthumb -10.0596 45.5086
rfemur -54.9749 9.43452 31.3496
rtibia 77.4158
rfoot -32.7326 -19.3129
rtoes -4.09912
lfemur -79.5887 9.89791 -17.2247
ltibia 67.8741
lfoot -16.7693 9.79467
ltoes -18.3192
389
root 23.2308 14.754 -14.8245 16.9428 -50.5765 -6.94744
lowerback 40.9404 -4.10085 7.71006
upperback 18.8831 -3.99335 -3.51475
thorax 0.88565 -1.76123 -6.34101
lowerneck 5.08008 2.29326 2.30758
upperneck -19.3459 2.89395 -2.47749
head -6.64059 1.38032 -1.38011
rclavicle -2.62396e-014 -4.37326e-015
rhumerus -8.27103 33.4232 -77.8826
rradius 107.599
rwrist 14.054
rhand -31.9773 -11.0117
rfingers 7.12502
rthumb -5.22681 -40.9272
lclavicle -2.62396e-014 -4.37326e-015
lhumerus 56.5851 -9.30057 43.6756
lradius 72.8744
lwrist 58.9823
lhand -37.128 15.6513
lfingers 7.12502
lthumb -10.1982 45.3841
rfemur -54.406 9.39148 31.3301
rtibia 77.2256
rfoot -32.9739 -19.4025
rtoes -4.48081
lfemur -78.6977 9.88326 -17.3263
ltibia 64.6314
lfoot -16.8202 9.81315
ltoes -18.5655
390
root 23.1646 14.7797 -14.7606 16.8904 -50.503 -6.93552
lowerback 40.6175 -4.10672 7.64568
upperback 18.8266 -4.03282 -3.56973
thorax 0.901118 -1.7793 -6.36412
lowerneck 4.93052 2.34965 2.19856
upperneck -19.1835 2.98767 -2.31652
head -6.56486 1.42191 -1.31236
rclavicle 6.36111e-015 -3.97569e-015
rhumerus -9.31438 33.5373 -78.6315
rradius 107.465
rwrist 14.253
rhand -32.1706 -10.8052
rfingers 7.12502
rthumb -5.41348 -40.7161
lclavicle 6.36111e-015 -3.97569e-015
lhumerus 55.9101 -9.95996 43.9719
lradius 73.2213
lwrist 58.7595
lhand -37.2595 15.5394
lfingers 7.12502
lthumb -10.3249 45.2659
rfemur -53.8214 9.34459 31.3364
rtibia 77.0343
rfoot -33.2249 -19.4652
rtoes -4.87446
lfemur -77.7722 9.92718 -17.4505
ltibia 61.3999
lfoot -16.8819 9.83888
ltoes -18.773
391
root 23.0965 14.8042 -14.6957 16.8623 -50.4399 -6.94972
lowerback 40.2682 -4.1022 7.56293
upperback 18.765 -4.06675 -3.61618
thorax 0.921466 -1.79668 -6.37176
lowerneck 4.75521 2.41372 2.07897
upperneck -18.9826 3.09326 -2.14051
head -6.47294 1.46937 -1.23798
rclavicle -3.97569e-014 -2.78299e-015
rhumerus -10.3831 33.6647 -79.3918
rradius 107.322
rwrist 14.4454
rhand -32.3585 -10.5787
rfingers 7.12502
rthumb -5.59484 -40.4849
lclavicle -3.97569e-014 -2.78299e-015
lhumerus 55.1809 -10.6063 44.2762
lradius 73.5819
lwrist 58.5542
lhand -37.3793 15.4373
lfingers 7.12502
lthumb -10.4406 45.1581
rfemur -53.2331 9.28974 31.3681
rtibia 76.8459
rfoot -33.4801 -19.5155
rtoes -5.28478
lfemur -76.8308 10.0206 -17.6013
ltibia 58.1952
lfoot -16.9474 9.87531
ltoes -18.9681
392
root 23.027 14.828 -14.6291 16.8523 -50.382 -6.98459
lowerback 39.8929 -4.09181 7.4832
upperback 18.6976 -4.09315 -3.65979
thorax 0.945488 -1.8103 -6.38158
lowerneck 4.5714 2.47978 1.97021
upperneck -18.7526 3.20496 -1.95204
head -6.37072 1.51864 -1.16137
rclavicle 8.66701e-014 -3.81667e-014
rhumerus -11.4939 33.78 -80.1754
rradius 107.171
rwrist 14.6306
rhand -32.5434 -10.3372
rfingers 7.12502
rthumb -5.77341 -40.2385
lclavicle 8.66701e-014 -3.81667e-014
lhumerus 54.4194 -11.2765 44.5984
lradius 73.9476
lwrist 58.3432
lhand -37.4884 15.336
lfingers 7.12502
lthumb -10.5458 45.0515
rfemur -52.6392 9.22273 31.4182
rtibia 76.6596
rfoot -33.7419 -19.5491
rtoes -5.68345
lfemur -75.871 10.139 -17.7627
ltibia 55.0298
lfoot -17.0223 9.93158
ltoes -19.1237
393
root 22.9558 14.8512 -14.561 16.8591 -50.3377 -7.04371
lowerback 39.3875 -4.05682 7.40579
upperback 18.7398 -4.10383 -3.703
thorax 0.969318 -1.81574 -6.40029
lowerneck 4.38011 2.54427 1.89029
upperneck -18.4947 3.31853 -1.75627
head -6.25858 1.56687 -1.08693
rclavicle -2.22639e-014 -9.54166e-015
rhumerus -12.6526 33.8675 -80.9881
rradius 107.02
rwrist 14.8052
rhand -32.7292 -10.0855
rfingers 7.12502
rthumb -5.95275 -39.9819
lclavicle -2.22639e-014 -9.54166e-015
lhumerus 53.6324 -11.9707 44.9306
lradius 74.3255
lwrist 58.1311
lhand -37.5791 15.2312
lfingers 7.12502
lthumb -10.6333 44.9421
rfemur -52.0334 9.1561 31.4879
rtibia 76.4758
rfoot -34.0007 -19.581
rtoes -6.09992
lfemur -74.891 10.2847 -17.9222
ltibia 51.9194
lfoot -17.1075 10.0049
ltoes -19.1665
